<svg width="1472" height="345" viewBox="0 0 1472 345" fill="none" xmlns="http://www.w3.org/2000/svg">
<path d="M196.837 11.4446C232.049 36.5964 250.401 94.1195 255.175 119.737C191.947 53.0149 154.218 63.4949 122.779 58.255C91.3388 53.015 106.36 29.2605 110.203 26.1165C114.045 22.9725 152.821 -19.9951 196.837 11.4446Z" fill="#2A6496"/>
<path d="M51.2239 82.65C89.2009 61.9066 148.974 70.4395 174.114 77.2989C86.5149 105.157 79.5173 143.683 61.1077 169.702C42.6981 195.722 27.8569 171.854 26.7003 167.026C25.5437 162.198 3.75279 108.579 51.2239 82.65Z" fill="#2A6496"/>
<path d="M61.8218 272.702C53.2093 230.295 79.0016 175.701 92.9743 153.705C93.7406 245.624 128.486 263.679 147.914 288.947C167.342 314.216 140.158 321.353 135.203 321.033C130.249 320.713 72.5875 325.71 61.8218 272.702Z" fill="#2A6496"/>
<path d="M215.441 313.468C173.593 302.455 136.016 255.194 122.458 232.94C205.255 272.869 236.805 249.678 268.057 243.415C299.309 237.152 293.699 264.692 291.223 268.995C288.747 273.299 267.751 327.233 215.441 313.468Z" fill="#2A6496"/>
<path d="M457.775 115.7C479.442 115.7 497.858 123.283 513.025 138.45C516.708 142.567 518.333 147.442 517.9 153.075C517.683 158.708 515.625 163.367 511.725 167.05C507.825 170.733 502.842 172.683 496.775 172.9C490.708 173.117 485.725 171.167 481.825 167.05C475.108 160.983 467.092 157.95 457.775 157.95C452.792 157.95 448.025 159.033 443.475 161.2C439.142 163.15 435.242 165.858 431.775 169.325C428.525 172.575 425.925 176.367 423.975 180.7C422.025 185.033 421.05 189.583 421.05 194.35C421.05 199.333 422.025 204.1 423.975 208.65C425.925 212.983 428.633 216.883 432.1 220.35C435.567 223.6 439.467 226.2 443.8 228.15C448.133 230.1 452.792 230.967 457.775 230.75C467.308 230.75 475.325 227.825 481.825 221.975C485.725 217.642 490.708 215.475 496.775 215.475C502.842 215.475 507.825 217.642 511.725 221.975C513.675 223.708 515.192 225.767 516.275 228.15C517.358 230.533 517.9 233.025 517.9 235.625C518.117 238.225 517.792 240.825 516.925 243.425C516.058 245.808 514.758 247.975 513.025 249.925C505.442 257.508 497.1 263.25 488 267.15C478.9 271.05 468.825 273 457.775 273C446.942 273 436.758 270.942 427.225 266.825C417.692 262.492 409.35 256.75 402.2 249.6C395.05 242.45 389.308 234.108 384.975 224.575C380.858 215.042 378.8 204.967 378.8 194.35C378.8 183.95 380.858 173.983 384.975 164.45C389.308 154.917 395.05 146.575 402.2 139.425C409.567 132.275 418.017 126.533 427.55 122.2C437.083 117.867 447.158 115.7 457.775 115.7ZM614.252 115.375C624.869 115.375 634.944 117.433 644.477 121.55C654.011 125.667 662.352 131.3 669.502 138.45C676.652 145.6 682.286 153.942 686.402 163.475C690.736 173.008 692.902 183.3 692.902 194.35C692.902 205.183 690.844 215.367 686.727 224.9C682.611 234.217 676.977 242.45 669.827 249.6C662.894 256.75 654.661 262.383 645.127 266.5C635.594 270.617 625.302 272.675 614.252 272.675C603.419 272.675 593.236 270.725 583.702 266.825C574.169 262.925 565.827 257.508 558.677 250.575C551.527 243.425 545.894 235.083 541.777 225.55C537.661 216.017 535.602 205.617 535.602 194.35C535.602 183.517 537.552 173.442 541.452 164.125C545.569 154.592 551.094 146.358 558.027 139.425C565.177 132.275 573.519 126.642 583.052 122.525C592.802 118.192 603.202 115.808 614.252 115.375ZM614.252 157.95C609.269 157.95 604.611 158.925 600.277 160.875C595.944 162.608 592.044 165.1 588.577 168.35C585.327 171.6 582.727 175.5 580.777 180.05C578.827 184.383 577.852 189.15 577.852 194.35C577.852 199.333 578.827 204.1 580.777 208.65C582.727 212.983 585.327 216.883 588.577 220.35C592.044 223.6 595.944 226.2 600.277 228.15C604.611 230.1 609.269 231.075 614.252 231.075C619.236 231.075 623.894 230.1 628.227 228.15C632.777 226.2 636.677 223.6 639.927 220.35C643.177 216.883 645.777 212.983 647.727 208.65C649.677 204.1 650.652 199.333 650.652 194.35C650.219 184.383 646.644 175.933 639.927 169C633.211 162.067 624.652 158.383 614.252 157.95ZM841.478 65.975C847.111 65.975 851.986 68.0333 856.103 72.15C860.436 76.05 862.603 81.1417 862.603 87.425V194.35C862.603 204.967 860.436 215.042 856.103 224.575C851.986 234.108 846.245 242.45 838.878 249.6C831.728 256.75 823.386 262.492 813.853 266.825C804.32 270.942 794.353 273 783.953 273C773.553 273 763.586 270.942 754.053 266.825C744.52 262.708 736.07 257.075 728.703 249.925C721.553 242.775 715.811 234.433 711.478 224.9C707.145 215.367 704.978 205.183 704.978 194.35C704.978 183.733 707.036 173.658 711.153 164.125C715.486 154.592 721.228 146.25 728.378 139.1C735.745 131.95 744.195 126.317 753.728 122.2C763.261 117.867 773.336 115.7 783.953 115.7C796.953 115.7 808.978 118.625 820.028 124.475V87.1C820.028 84.2833 820.57 81.575 821.653 78.975C822.953 76.375 824.578 74.1 826.528 72.15C828.478 70.2 830.753 68.6833 833.353 67.6C835.953 66.5167 838.661 65.975 841.478 65.975ZM783.953 157.95C778.97 157.95 774.203 158.925 769.653 160.875C765.32 162.825 761.42 165.533 757.953 169C754.703 172.25 752.103 176.15 750.153 180.7C748.203 185.033 747.228 189.583 747.228 194.35C747.228 199.333 748.203 204.1 750.153 208.65C752.103 212.983 754.703 216.775 757.953 220.025C761.42 223.275 765.32 225.875 769.653 227.825C774.203 229.775 778.97 230.75 783.953 230.75C788.72 230.75 793.27 229.775 797.603 227.825C801.936 225.875 805.728 223.275 808.978 220.025C812.445 216.558 815.153 212.658 817.103 208.325C819.053 203.992 820.028 199.333 820.028 194.35C820.028 189.15 819.053 184.383 817.103 180.05C815.153 175.5 812.445 171.6 808.978 168.35C805.728 165.1 801.936 162.608 797.603 160.875C793.27 158.925 788.72 157.95 783.953 157.95ZM906.242 66.95C911.875 66.95 916.642 69.1167 920.542 73.45C924.659 77.5667 926.717 82.4417 926.717 88.075C926.717 93.7083 924.659 98.6917 920.542 103.025C916.642 107.142 911.875 109.2 906.242 109.2C899.959 108.983 894.759 107.033 890.642 103.35C886.742 99.45 884.792 94.0333 884.792 87.1C885.009 81.4667 887.175 76.7 891.292 72.8C895.625 68.9 900.609 66.95 906.242 66.95ZM906.242 116.675C911.875 116.675 916.534 118.733 920.217 122.85C924.117 126.967 926.284 131.95 926.717 137.8V252.85C926.717 258.7 924.875 263.575 921.192 267.475C917.509 271.375 912.525 273.542 906.242 273.975C900.609 273.975 895.842 272.242 891.942 268.775C888.042 265.308 885.659 260.433 884.792 254.15V136.5C885.225 130.867 887.5 126.208 891.617 122.525C895.734 118.842 900.609 116.892 906.242 116.675ZM1027.53 114.725C1037.93 114.725 1047.9 116.675 1057.43 120.575C1066.96 124.258 1075.31 129.567 1082.46 136.5C1089.61 143.217 1095.35 151.233 1099.68 160.55C1104.01 169.867 1106.18 179.942 1106.18 190.775V250.9C1106.18 256.533 1104.12 261.408 1100.01 265.525C1096.11 269.642 1091.23 271.808 1085.38 272.025C1079.53 272.025 1074.44 270.183 1070.11 266.5C1065.99 262.6 1063.93 257.725 1063.93 251.875V193.375C1063.93 188.392 1062.96 183.733 1061.01 179.4C1059.27 174.85 1056.67 170.95 1053.21 167.7C1049.96 164.45 1046.06 161.85 1041.51 159.9C1037.17 157.95 1032.41 156.975 1027.21 156.975C1022.44 156.975 1017.89 157.95 1013.56 159.9C1009.22 161.633 1005.43 164.017 1002.18 167.05C998.93 170.083 996.33 173.767 994.38 178.1C992.43 182.433 991.455 186.983 991.455 191.75V250.9C991.455 256.533 989.289 261.517 984.955 265.85C980.622 269.967 975.639 272.025 970.005 272.025C964.372 272.025 959.389 270.075 955.055 266.175C950.722 262.275 948.555 257.508 948.555 251.875V193.375C948.772 182.542 950.83 172.358 954.73 162.825C958.847 153.292 964.372 144.95 971.305 137.8C978.455 130.65 986.797 125.017 996.33 120.9C1005.86 116.783 1016.26 114.725 1027.53 114.725ZM1203.31 115.375C1213.93 115.375 1224.01 117.433 1233.54 121.55C1243.07 125.667 1251.41 131.3 1258.56 138.45C1265.71 145.6 1271.35 153.942 1275.46 163.475C1279.8 173.008 1281.96 183.3 1281.96 194.35C1281.96 205.183 1279.91 215.367 1275.79 224.9C1271.67 234.217 1266.04 242.45 1258.89 249.6C1251.96 256.75 1243.72 262.383 1234.19 266.5C1224.66 270.617 1214.36 272.675 1203.31 272.675C1192.48 272.675 1182.3 270.725 1172.76 266.825C1163.23 262.925 1154.89 257.508 1147.74 250.575C1140.59 243.425 1134.96 235.083 1130.84 225.55C1126.72 216.017 1124.66 205.617 1124.66 194.35C1124.66 183.517 1126.61 173.442 1130.51 164.125C1134.63 154.592 1140.16 146.358 1147.09 139.425C1154.24 132.275 1162.58 126.642 1172.11 122.525C1181.86 118.192 1192.26 115.808 1203.31 115.375ZM1203.31 157.95C1198.33 157.95 1193.67 158.925 1189.34 160.875C1185.01 162.608 1181.11 165.1 1177.64 168.35C1174.39 171.6 1171.79 175.5 1169.84 180.05C1167.89 184.383 1166.91 189.15 1166.91 194.35C1166.91 199.333 1167.89 204.1 1169.84 208.65C1171.79 212.983 1174.39 216.883 1177.64 220.35C1181.11 223.6 1185.01 226.2 1189.34 228.15C1193.67 230.1 1198.33 231.075 1203.31 231.075C1208.3 231.075 1212.96 230.1 1217.29 228.15C1221.84 226.2 1225.74 223.6 1228.99 220.35C1232.24 216.883 1234.84 212.983 1236.79 208.65C1238.74 204.1 1239.71 199.333 1239.71 194.35C1239.28 184.383 1235.71 175.933 1228.99 169C1222.27 162.067 1213.71 158.383 1203.31 157.95ZM1438.67 115.7C1444.3 115.7 1449.17 117.758 1453.29 121.875C1457.41 126.425 1459.47 131.3 1459.47 136.5C1459.47 142.35 1457.41 147.333 1453.29 151.45C1452.21 152.533 1451.12 153.617 1450.04 154.7C1448.96 155.783 1447.87 156.867 1446.79 157.95C1434.66 170.083 1422.52 182.217 1410.39 194.35C1398.47 206.267 1386.34 218.292 1373.99 230.425H1438.67C1444.08 230.642 1448.96 232.808 1453.29 236.925C1457.41 241.475 1459.47 246.567 1459.47 252.2C1459.47 257.4 1457.41 262.275 1453.29 266.825C1448.74 270.942 1443.87 273 1438.67 273H1437.69H1331.74H1323.62H1322.64C1317.01 273 1312.13 270.942 1308.02 266.825C1303.68 262.492 1301.62 257.617 1301.84 252.2C1301.41 246.35 1303.36 241.475 1307.69 237.575L1386.99 157.95H1323.62H1322.64C1316.79 157.517 1311.92 155.35 1308.02 151.45C1303.47 147.333 1301.41 142.35 1301.84 136.5C1301.62 131.083 1303.68 126.208 1308.02 121.875C1311.92 117.758 1316.79 115.7 1322.64 115.7H1438.67Z" fill="#2A6496"/>
</svg>
