<?xml version="1.0" standalone="no"?>
<!DOCTYPE svg PUBLIC "-//W3C//DTD SVG 20010904//EN"
 "http://www.w3.org/TR/2001/REC-SVG-20010904/DTD/svg10.dtd">
<svg version="1.0" xmlns="http://www.w3.org/2000/svg"
 width="573.000000pt" height="435.000000pt" viewBox="0 0 573.000000 435.000000"
 preserveAspectRatio="xMidYMid meet">

<g transform="translate(0.000000,435.000000) scale(0.100000,-0.100000)"
fill="#000000" stroke="none">
<path d="M1755 2957 l-120 -42 -33 -83 c-61 -152 -75 -296 -46 -451 57 -302
237 -523 529 -650 35 -15 32 -12 -56 57 -155 121 -262 295 -303 492 -23 108
-21 285 4 385 22 85 72 201 118 269 41 61 44 66 35 65 -4 0 -62 -19 -128 -42z"/>
<path d="M2024 2969 c-91 -100 -146 -207 -189 -366 -14 -49 -16 -92 -13 -210
4 -128 8 -159 32 -228 24 -72 64 -165 70 -165 1 0 -4 39 -12 88 -22 136 -12
326 23 427 35 104 62 156 121 235 58 77 110 130 181 187 62 49 61 49 -87 59
l-95 6 -31 -33z"/>
<path d="M2383 2870 c-138 -62 -279 -213 -333 -356 -27 -74 -50 -189 -49 -249
l1 -50 18 70 c53 197 178 353 352 439 53 26 124 53 157 59 34 6 61 15 61 19 0
9 -140 88 -155 88 -5 0 -29 -9 -52 -20z"/>
<path d="M1345 2714 c-45 -44 -94 -96 -109 -117 -28 -37 -29 -39 -22 -127 16
-215 103 -437 223 -570 127 -142 301 -253 478 -305 75 -23 111 -27 220 -28 72
-1 153 2 180 7 l50 9 -119 18 c-239 35 -402 116 -558 277 -133 136 -219 292
-259 467 -21 92 -26 300 -8 370 21 83 10 83 -76 -1z"/>
<path d="M2530 2210 l0 -290 50 0 c56 0 52 -7 54 100 l1 65 110 5 c170 8 240
52 266 166 16 69 -7 139 -61 188 -53 48 -92 56 -267 56 l-153 0 0 -290z m347
174 c58 -44 55 -140 -6 -181 -30 -20 -47 -23 -131 -23 -80 0 -99 3 -104 16
-12 31 -7 202 7 208 6 3 56 4 109 3 80 -2 101 -6 125 -23z"/>
<path d="M3295 2487 c-3 -7 -4 -136 -3 -287 l3 -275 48 -3 47 -3 0 210 c0 131
4 211 10 211 5 0 35 -35 67 -77 31 -43 73 -100 92 -126 l36 -48 25 29 c14 16
58 72 98 125 40 53 77 97 82 97 6 0 10 -84 10 -210 l0 -210 50 0 50 0 0 290 0
290 -59 0 c-56 0 -61 -2 -82 -32 -59 -85 -162 -218 -169 -218 -8 0 -65 74
-148 190 l-44 60 -54 0 c-35 0 -56 -5 -59 -13z"/>
<path d="M4365 2484 c-87 -28 -135 -81 -135 -149 0 -90 67 -144 210 -170 131
-23 159 -41 160 -101 1 -102 -201 -129 -286 -38 l-32 33 -33 -18 c-18 -10 -35
-23 -37 -29 -2 -6 14 -28 36 -50 129 -129 417 -83 446 72 4 19 2 54 -4 77 -22
79 -76 111 -238 140 -41 7 -85 21 -98 32 -33 26 -32 71 2 102 23 22 36 25 98
25 61 0 77 -4 110 -26 37 -26 40 -26 72 -10 19 8 34 19 34 24 0 16 -55 61 -93
77 -57 24 -153 28 -212 9z"/>
<path d="M1041 2217 c-44 -158 -50 -248 -23 -310 51 -114 201 -292 319 -376
67 -48 196 -109 290 -137 191 -56 466 -39 633 38 25 11 59 27 75 35 33 15 44
21 127 76 32 21 58 40 58 42 0 2 -25 -7 -55 -20 -79 -36 -217 -73 -316 -85
-70 -9 -108 -9 -198 4 -243 34 -440 131 -605 300 -127 131 -207 288 -263 516
-9 33 -11 29 -42 -83z"/>
</g>
</svg>
