<?xml version="1.0" encoding="utf-8"?>
<!-- Generator: Adobe Illustrator 26.3.0, SVG Export Plug-In . SVG Version: 6.00 Build 0)  -->
<svg version="1.1" id="Layer_1" xmlns="http://www.w3.org/2000/svg" xmlns:xlink="http://www.w3.org/1999/xlink" x="0px" y="0px"
	 viewBox="0 0 848.7 841.9" style="enable-background:new 0 0 848.7 841.9;" xml:space="preserve">
<style type="text/css">
	.st0{fill:#0A1D2E;}
	.st1{fill:#FBB216;}
</style>
<g>
	<path class="st0" d="M798.6,519.3l-13.8,98.8l-11.4,30.2c0,0-111,185.7-346.5,185.7S15,635.7,15,407.2
		c0-124.4,67.3-231.7,154.8-303.7c30.4-18,99.4-53.3,173.2-53.3c64.9,0,120.7,22.4,167.8,54.9c-31.9-7.9-68.3-14.9-97.1-14.9
		c-65.8,0-163.3,9.5-243.9,102.9S88.5,412.4,96.6,447.6c7.9,34,49.8,257.7,309.6,256.7s303.3-256.7,303.3-256.7L798.6,519.3z"/>
	<path class="st1" d="M201.6,598c-8.7-29.6-11.5-60.6-8.4-91.2c5.6-48,50.9-178.7,146.3-177.3c95.4,1.4,53.7,218.7,120.9,259.6
		c67.2,40.9,189.8-94,264.1-85.4c74.2,8.6,70.1,128.4,19.1,187.8c0,0,106.1-138.6,92.3-210.3s-36.1-117.6-151.6-81.3
		s-170.8,145.4-175-35.9c-4.1-178.4-80-206-192-150.6C209.6,266.4,109.2,426.7,201.6,598z"/>
	<path class="st1" d="M726.9,139.3c-9.2-10.2-38.4-38.5-81.3-66.3l0,0c-1.3-1-19.3-15.4-54.5-30.4h-0.2
		C551,25.6,489.2,7.9,404.7,7.9c-52.7,0-112.1,18-168.5,50.2l-1,0.6l-2.5,1.4l-2.4,1.4l-4.1,2.4c-19.6,11.9-38.4,25.2-56.1,39.8
		c30.4-18,99.4-53.3,173.2-53.3c64.9,0,120.7,22.4,167.8,54.9c24.1,16.8,46.5,36,66.9,57.2c58,59.7,84.8,141.7,156.2,114.2
		C805.6,249.1,747.4,162,726.9,139.3z"/>
</g>
</svg>
