<svg width="936" height="1053" viewBox="0 0 936 1053" fill="none" xmlns="http://www.w3.org/2000/svg">
<path d="M599.953 34.9113C707.367 111.636 763.347 287.107 777.91 365.252C585.036 161.719 469.947 193.688 374.042 177.704C278.137 161.72 323.958 89.2577 335.68 79.6672C347.402 70.0766 465.685 -60.9941 599.953 34.9113Z" fill="#2A6496"/>
<path d="M155.768 252.12C271.614 188.843 453.951 214.872 530.638 235.797C263.421 320.775 242.075 438.298 185.917 517.669C129.76 597.039 84.4874 524.233 80.9593 509.504C77.4312 494.776 10.9592 331.216 155.768 252.12Z" fill="#2A6496"/>
<path d="M188.096 831.863C161.824 702.502 240.502 535.967 283.125 468.87C285.463 749.264 391.453 804.341 450.716 881.42C509.98 958.499 427.056 980.27 411.942 979.294C396.828 978.319 220.936 993.564 188.096 831.863Z" fill="#2A6496"/>
<path d="M656.703 956.218C529.048 922.624 414.42 778.456 373.063 710.571C625.63 832.374 721.873 761.63 817.206 742.526C912.539 723.422 895.427 807.431 887.873 820.558C880.32 833.685 816.273 998.21 656.703 956.218Z" fill="#2A6496"/>
</svg>
